<?xml version="1.0" encoding="iso-8859-1"?>
<svg version="1.1" id="Capa_1" fill="#fff" xmlns="http://www.w3.org/2000/svg" xmlns:xlink="http://www.w3.org/1999/xlink" x="0px" y="0px"
	 viewBox="0 0 444.082 444.082" style="enable-background:new 0 0 444.082 444.082;" xml:space="preserve">
<g>
	<g>
		<g>
			<path d="M436.245,316.082H128V7.837C128,3.509,124.491,0,120.163,0s-7.837,3.509-7.837,7.837v312.424
				c-0.609,5.739,3.549,10.885,9.287,11.494c0.733,0.078,1.473,0.078,2.207,0h312.424c4.328,0,7.837-3.509,7.837-7.837
				S440.573,316.082,436.245,316.082z"/>
			<path d="M323.918,375.118c-4.328,0-7.837,3.509-7.837,7.837v53.29c0,4.328,3.509,7.837,7.837,7.837s7.837-3.509,7.837-7.837
				v-53.29C331.755,378.627,328.246,375.118,323.918,375.118z"/>
			<path d="M166.139,128h149.943v152.033c0,4.328,3.509,7.837,7.837,7.837s7.837-3.509,7.837-7.837V123.82
				c0.609-5.739-3.549-10.885-9.287-11.494c-0.733-0.078-1.473-0.078-2.207,0H166.139c-4.328,0-7.837,3.509-7.837,7.837
				S161.811,128,166.139,128z"/>
			<path d="M66.351,112.327H7.837c-4.328,0-7.837,3.509-7.837,7.837S3.509,128,7.837,128h58.514c4.328,0,7.837-3.509,7.837-7.837
				S70.679,112.327,66.351,112.327z"/>
		</g>
	</g>
</g>
<g>
</g>
<g>
</g>
<g>
</g>
<g>
</g>
<g>
</g>
<g>
</g>
<g>
</g>
<g>
</g>
<g>
</g>
<g>
</g>
<g>
</g>
<g>
</g>
<g>
</g>
<g>
</g>
<g>
</g>
</svg>
